<svg xmlns="http://www.w3.org/2000/svg" viewBox="0 0 720 155" width="720" height="155">
  <defs>
    <linearGradient id="bg" x1="0" y1="0" x2="1" y2="0">
      <stop offset="0%" stop-color="#111113"/>
      <stop offset="100%" stop-color="#0c0c0e"/>
    </linearGradient>
  </defs>

  <!-- Background -->
  <rect width="720" height="155" rx="14" fill="url(#bg)"/>
  <!-- Border -->
  <rect width="720" height="155" rx="14" fill="none" stroke="#3f3f46" stroke-width="1.5"/>

  <!-- MDI coffee icon – amber -->
  <g transform="translate(22, 22) scale(4)" fill="#f59e0b">
    <path d="M2,21V19H20V21H2M20,8V5H18V8H20M20,3A2,2 0 0,1 22,5V8A2,2 0 0,1 20,10H18V13A4,4 0 0,1 14,17H8A4,4 0 0,1 4,13V3H20M16,5H6V13A2,2 0 0,0 8,15H14A2,2 0 0,0 16,13V5Z"/>
  </g>

  <!-- Divider -->
  <line x1="138" y1="24" x2="138" y2="131" stroke="#3f3f46" stroke-width="1.5"/>

  <!-- GLP wordmark -->
  <text x="162" y="97"
        font-family="-apple-system, BlinkMacSystemFont, 'Segoe UI', system-ui, sans-serif"
        font-size="68" font-weight="800" fill="white" letter-spacing="-2">GLP</text>

  <!-- Subtitle: product name -->
  <text x="165" y="116"
        font-family="-apple-system, BlinkMacSystemFont, 'Segoe UI', system-ui, sans-serif"
        font-size="12" font-weight="500" fill="#71717a" letter-spacing="3.5">GAGGIUINO LOCAL PROFILER</text>

  <!-- Subtitle: component badge -->
  <text x="165" y="134"
        font-family="-apple-system, BlinkMacSystemFont, 'Segoe UI', system-ui, sans-serif"
        font-size="10" font-weight="500" fill="#41bdf5" letter-spacing="2.5">HOME ASSISTANT LOVELACE CARD</text>

  <!-- Shot 54 "Adaptive" — real extraction data -->

  <!-- Weight (emerald) — ramps from 0 to 36.7g -->
  <polyline points="490.0,112.0 497.9,112.0 505.8,112.0 513.6,112.0 521.5,112.0 529.4,112.0 537.2,111.8 545.1,111.1 553.9,109.1 561.8,107.6 569.6,105.4 577.5,102.3 585.4,99.2 593.2,94.3 601.1,89.7 609.0,86.6 616.9,81.3 624.8,77.3 632.6,72.2 640.5,68.0 648.4,64.0 656.2,58.9 664.1,53.9 672.0,50.1 679.9,45.0 688.6,41.3 696.5,36.0"
            fill="none" stroke="#34d399" stroke-width="1.8" stroke-linecap="round" stroke-linejoin="round" opacity="0.45"/>

  <!-- Weight flow (rose) — rises to ~2.3 g/s -->
  <polyline points="490.0,88.5 497.9,91.8 505.8,98.6 513.6,101.9 521.5,105.3 529.4,105.3 537.2,108.6 545.1,105.3 553.9,95.2 561.8,88.5 569.6,81.8 577.5,78.4 585.4,68.3 593.2,54.9 601.1,48.2 609.0,48.2 616.9,41.4 624.8,38.1 632.6,38.1 640.5,38.1 648.4,38.1 656.2,38.1 664.1,38.1 672.0,38.1 679.9,38.1 688.6,34.7 696.5,34.7"
            fill="none" stroke="#f472b6" stroke-width="1.8" stroke-linecap="round" stroke-linejoin="round" opacity="0.38"/>

  <!-- Pump flow (blue) — high start, drops, stabilises -->
  <polyline points="490.0,55.1 497.9,37.3 505.8,38.3 513.6,47.6 521.5,87.7 529.4,96.1 537.2,104.5 545.1,102.7 553.9,98.0 561.8,97.1 569.6,96.1 577.5,94.3 585.4,93.3 593.2,93.3 601.1,93.3 609.0,93.3 616.9,92.4 624.8,92.4 632.6,92.4 640.5,92.4 648.4,92.4 656.2,92.4 664.1,92.4 672.0,92.4 679.9,92.4 688.6,92.4 696.5,92.4"
            fill="none" stroke="#60a5fa" stroke-width="2.0" stroke-linecap="round" stroke-linejoin="round" opacity="0.45"/>

  <!-- Pressure (amber) — preinfusion ramp to 9 bar hold -->
  <polyline points="490.0,99.4 497.9,100.2 505.8,95.2 513.6,88.5 521.5,86.8 529.4,86.8 537.2,86.8 545.1,84.3 553.9,72.5 561.8,63.3 569.6,55.7 577.5,46.5 585.4,36.4 593.2,37.2 601.1,37.2 609.0,37.2 616.9,38.9 624.8,41.4 632.6,43.1 640.5,43.1 648.4,44.0 656.2,42.3 664.1,43.1 672.0,42.3 679.9,42.3 688.6,42.3 696.5,42.3"
            fill="none" stroke="#f59e0b" stroke-width="2.5" stroke-linecap="round" stroke-linejoin="round" opacity="0.65"/>
</svg>
